
<?xml version="1.0" encoding="UTF-8"?>
<svg version="1.1" xmlns="http://www.w3.org/2000/svg" width="300" height="300">
<path d="M0 0 C5.41780304 0.01137191 10.83540902 0.00462123 16.2532053 -0.0068779 C50.1389133 -0.06787206 83.88479057 0.86700247 117.6394043 4.01074219 C118.54638062 4.0934436 119.45335693 4.17614502 120.38781738 4.26135254 C191.3564645 10.77371247 261.85846496 22.74242693 330.7019043 41.26074219 C331.91997772 41.58757996 331.91997772 41.58757996 333.16265869 41.92102051 C399.17117782 59.68649644 463.53329416 82.85743046 525.7019043 111.26074219 C526.88671387 111.80166504 528.07152344 112.34258789 529.29223633 112.89990234 C554.91537495 124.62573823 580.23614555 136.95968394 604.85717773 150.68017578 C607.95766545 152.40284635 611.06753645 154.10778797 614.1784668 155.81152344 C643.13894283 171.71780605 671.08207085 189.14754364 698.7019043 207.26074219 C699.38236816 207.70659668 700.06283203 208.15245117 700.76391602 208.61181641 C710.21883212 214.82040938 719.48813255 221.27332516 728.69995117 227.83642578 C730.52532755 229.13511429 732.35485105 230.42764103 734.1862793 231.71777344 C744.51860457 239.01660298 754.61082108 246.63352852 764.7019043 254.26074219 C765.83063965 255.11055664 765.83063965 255.11055664 766.98217773 255.97753906 C777.15306107 263.63872391 787.05786496 271.5714897 796.84350586 279.71826172 C799.3659022 281.81186394 801.90845011 283.88030335 804.4519043 285.94824219 C813.22910772 293.12716881 821.85361533 300.4449182 830.23706055 308.08105469 C832.85095458 310.39254894 835.54205982 312.57833566 838.2644043 314.76074219 C842.57388217 318.24474261 846.51068149 321.92042495 850.33862305 325.92480469 C852.30788817 327.87128493 854.30896172 329.68218481 856.40063477 331.49243164 C869.84413416 343.21750334 882.44867041 355.84754183 895.04150391 368.4699707 C897.78848275 371.22236814 900.54084633 373.96930115 903.29370117 376.71582031 C905.06680878 378.48958789 906.8396066 380.26366519 908.61206055 382.03808594 C909.82781517 383.25080421 909.82781517 383.25080421 911.06813049 384.48802185 C915.25917164 388.69624941 919.30200368 392.97459341 923.16558838 397.48631287 C925.81098055 400.54171403 928.61126124 403.45155499 931.3894043 406.38574219 C936.58500348 411.9097628 941.60520296 417.54880049 946.5065918 423.3347168 C949.41013095 426.76169303 952.36273418 430.12833067 955.3894043 433.44824219 C959.18697678 437.6344352 962.77256374 441.96093233 966.3269043 446.35449219 C968.41847223 448.91391084 970.54300475 451.43706435 972.68994141 453.94970703 C978.37207488 460.60103384 983.82661546 467.40327428 989.18920898 474.31396484 C990.81633451 476.40800922 992.45013187 478.49673485 994.0847168 480.58496094 C1005.49138326 495.17425934 1016.57803954 509.93508505 1027.19311523 525.11083984 C1028.71160822 527.27456949 1030.24014935 529.43082546 1031.7722168 531.58496094 C1038.25279022 540.7017874 1044.57169292 549.9048034 1050.7019043 559.26074219 C1051.19803223 560.01726074 1051.69416016 560.7737793 1052.20532227 561.55322266 C1056.06102949 567.44062295 1059.8873214 573.34663324 1063.7019043 579.26074219 C1064.18884766 580.01274902 1064.67579102 580.76475586 1065.17749023 581.53955078 C1074.48515973 595.94184376 1083.14145023 610.72193214 1091.72143555 625.5647583 C1092.62662962 627.13053442 1093.53333905 628.69543424 1094.44018555 630.26025391 C1127.4916679 687.44695802 1155.52820783 747.42795538 1178.7019043 809.26074219 C1179.10992279 810.34814697 1179.10992279 810.34814697 1179.52618408 811.45751953 C1194.24846382 850.76375665 1207.04446352 890.66210158 1217.7019043 931.26074219 C1217.93502319 932.1485437 1218.16814209 933.03634521 1218.4083252 933.9510498 C1238.41882708 1010.47896713 1250.41175728 1088.51354499 1255.94018555 1167.37402344 C1256.00344025 1168.26612015 1256.06669495 1169.15821686 1256.13186646 1170.0773468 C1257.31171484 1187.51606005 1257.86826165 1204.91700406 1257.9050293 1222.39355469 C1257.91205006 1224.46700054 1257.91913689 1226.54044618 1257.92628479 1228.6138916 C1257.94569013 1235.20451162 1257.95071879 1241.79509649 1257.9519043 1248.38574219 C1257.95234615 1249.50798943 1257.95278801 1250.63023666 1257.95324326 1251.78649139 C1257.95991479 1284.08283853 1257.87024677 1316.25859215 1254.95513916 1348.44854736 C1254.68836479 1351.41109958 1254.43437395 1354.3745768 1254.18188477 1357.33837891 C1246.10954348 1451.04642127 1227.71402225 1543.43521678 1177.7019043 1694.26074219 C1177.27522461 1695.38367676 1176.84854492 1696.50661133 1176.40893555 1697.66357422 C1156.86874952 1748.94189274 1134.02869015 1799.49299371 1107.27954102 1847.42626953 C1105.52445808 1850.57955225 1103.78654249 1853.74198557 1102.04956055 1856.90527344 C1094.54897413 1870.53425933 1086.84398434 1884.00440986 1078.7019043 1897.26074219 C1078.1735498 1898.12393066 1077.64519531 1898.98711914 1077.10083008 1899.87646484 C1047.48846984 1948.21079816 1014.92018317 1994.85711067 978.86987305 2038.62792969 C977.42876057 2040.37803745 975.99381027 2042.13323831 974.56518555 2043.89355469 C968.91344525 2050.85422586 963.10330518 2057.66706211 957.25024414 2064.45800781 C955.72349739 2066.23560132 954.20548722 2068.02026233 952.69018555 2069.80761719 C946.35248896 2077.27231436 939.83955496 2084.5360734 933.15893555 2091.69482422 C930.80497242 2094.22470349 928.4722536 2096.77390862 926.1394043 2099.32324219 C925.27863281 2100.26095459 924.41786133 2101.19866699 923.53100586 2102.16479492 C921.84472694 2104.00505878 920.17197922 2105.85428188 918.50952148 2107.71630859 C909.36140128 2117.88921822 899.62633276 2127.48651045 889.94329834 2137.14630127 C888.03218375 2139.0548036 886.12480262 2140.96701601 884.21738148 2142.87920856 C881.90867677 2145.19242604 879.59613308 2147.50179805 877.28393555 2149.81152344 C876.4410347 2150.65644852 875.59813385 2151.5013736 874.72969055 2152.37190247 C870.43935781 2156.64543048 866.08837319 2160.77992462 861.48506165 2164.71569824 C858.24977506 2167.51896177 855.17868221 2170.4991576 852.0769043 2173.44824219 C846.39818961 2178.81276706 840.61267897 2184.00284375 834.64746094 2189.04589844 C831.03084762 2192.10630908 827.50073838 2195.23844452 824.0144043 2198.44824219 C819.26325311 2202.79944161 814.34890681 2206.88976242 809.3347168 2210.93261719 C807.48759646 2212.43505957 805.65662585 2213.95591082 803.8269043 2215.47949219 C795.19548027 2222.65808233 786.42816987 2229.60364074 777.47924805 2236.38183594 C774.55100752 2238.60259174 771.67417548 2240.87403989 768.8269043 2243.19824219 C761.00798494 2249.5063873 752.81673328 2255.34246894 744.7019043 2261.26074219 C743.95875977 2261.8039209 743.21561523 2262.34709961 742.44995117 2262.90673828 C725.80958003 2275.05750434 709.08377327 2287.15582339 691.50268555 2297.91699219 C687.45721221 2300.3942823 683.48667428 2302.98076476 679.5144043 2305.57324219 C613.66162941 2348.35898618 542.80614549 2384.57488935 469.7019043 2413.26074219 C469.06067627 2413.51301575 468.41944824 2413.76528931 467.75878906 2414.02520752 C415.85700249 2434.42284267 362.82645838 2451.47802593 308.67108154 2464.7769165 C306.78187012 2465.24109463 304.89347926 2465.70860864 303.00512695 2466.17626953 C242.13872671 2481.15735722 180.03606479 2490.83156427 117.6394043 2496.51074219 C116.81079895 2496.58787445 115.9821936 2496.66500671 115.128479 2496.74447632 C80.35309746 2499.9377077 45.5540634 2500.63919899 10.65297699 2500.5788002 C7.33654227 2500.57315216 4.02011268 2500.57033676 0.70367432 2500.56771851 C-29.78238902 2500.53272974 -60.150651 2500.32053021 -90.53015137 2497.51397705 C-93.46205172 2497.24574211 -96.39498148 2496.99214754 -99.32836914 2496.74072266 C-196.44870752 2488.34159853 -292.61285735 2469.15947733 -457.14984131 2412.14111328 C-459.37384064 2411.22970133 -461.59981252 2410.32322254 -463.82592773 2409.41699219 C-506.71062512 2391.91670189 -549.00017711 2372.41899188 -589.46362305 2349.83837891 C-592.61690577 2348.08329597 -595.77933908 2346.34538038 -598.94262695 2344.60839844 C-612.57161285 2337.10781202 -626.04176337 2329.40282223 -639.2980957 2321.26074219 C-640.16128418 2320.7323877 -641.02447266 2320.2040332 -641.91381836 2319.65966797 C-653.82080444 2312.36477142 -665.62558858 2304.9253722 -677.2980957 2297.26074219 C-678.27004883 2296.62265625 -679.24200195 2295.98457031 -680.2434082 2295.32714844 C-683.27240008 2293.32076493 -686.28763446 2291.29475249 -689.2980957 2289.26074219 C-690.07781738 2288.73496582 -690.85753906 2288.20918945 -691.66088867 2287.66748047 C-713.34504402 2273.02776053 -734.45981271 2257.69302347 -755.15356445 2241.68652344 C-757.2750949 2240.04991423 -759.40061096 2238.42140461 -761.53637695 2236.80371094 C-767.7200189 2232.10858639 -773.73616317 2227.2711094 -779.63623047 2222.22363281 C-782.78986322 2219.52719338 -785.97862393 2216.8936954 -789.2355957 2214.32324219 C-795.12334395 2209.65299277 -800.79185931 2204.73530251 -806.47924805 2199.82519531 C-808.26289729 2198.29101755 -810.05428803 2196.76647635 -811.84887695 2195.24511719 C-819.31272233 2188.90923845 -826.57477054 2182.39713897 -833.73217773 2175.71777344 C-836.262057 2173.36381031 -838.81126213 2171.03109149 -841.3605957 2168.69824219 C-842.29895264 2167.83682617 -843.23730957 2166.97541016 -844.20410156 2166.08789062 C-846.03760995 2164.40777809 -847.88016322 2162.74150952 -849.73608398 2161.0859375 C-859.56864795 2152.24914716 -868.85625519 2142.85511077 -878.19042969 2133.4987793 C-880.63197313 2131.05150742 -883.07802561 2128.60879914 -885.52541065 2126.1673708 C-887.89609588 2123.80119727 -890.26293294 2121.43118972 -892.63012695 2119.06152344 C-893.93032524 2117.7643615 -893.93032524 2117.7643615 -895.25679016 2116.44099426 C-899.59088187 2112.09027496 -903.79035289 2107.6829018 -907.78210449 2103.0148468 C-910.41849056 2099.96436938 -913.21408195 2097.06292773 -915.9855957 2094.13574219 C-921.18119489 2088.61172157 -926.20139437 2082.97268388 -931.1027832 2077.18676758 C-934.00632236 2073.75979134 -936.95892558 2070.3931537 -939.9855957 2067.07324219 C-943.78316819 2062.88704918 -947.36875514 2058.56055205 -950.9230957 2054.16699219 C-953.01466364 2051.60757353 -955.13919616 2049.08442003 -957.28613281 2046.57177734 C-962.9717638 2039.91635645 -968.42867894 2033.10955794 -973.79418945 2026.19433594 C-975.39321773 2024.13844244 -977.0012961 2022.08985381 -978.6105957 2020.04199219 C-987.05788065 2009.27110899 -995.23971998 1998.32487362 -1003.2980957 1987.26074219 C-1003.84852539 1986.50792969 -1004.39895508 1985.75511719 -1004.96606445 1984.97949219 C-1013.31052141 1973.56284799 -1021.38156904 1961.97772767 -1029.2980957 1950.26074219 C-1029.72123047 1949.63699707 -1030.14436523 1949.01325195 -1030.58032227 1948.37060547 C-1050.56853287 1918.87859727 -1069.14617172 1888.48121564 -1086.2980957 1857.26074219 C-1087.30040294 1855.4506819 -1088.30299874 1853.64078137 -1089.3059082 1851.83105469 C-1125.6060866 1786.07921892 -1155.11004987 1717.33198267 -1179.2980957 1646.26074219 C-1179.53937195 1645.55236206 -1179.78064819 1644.84398193 -1180.02923584 1644.11413574 C-1188.41443812 1619.43540906 -1195.55768299 1594.43405805 -1202.2980957 1569.26074219 C-1202.50521179 1568.49004395 -1202.71232788 1567.7193457 -1202.92572021 1566.92529297 C-1221.11011674 1499.13579151 -1232.37226368 1429.4439224 -1238.5480957 1359.57324219 C-1238.6253186 1358.71163483 -1238.7025415 1357.85002747 -1238.78210449 1356.96231079 C-1239.36167669 1350.39995845 -1239.84806759 1343.83316903 -1240.2980957 1337.26074219 C-1240.38529877 1336.01221466 -1240.47250183 1334.76368713 -1240.56234741 1333.47732544 C-1242.30761311 1308.00956712 -1242.6433268 1282.58578673 -1242.61376953 1257.06420898 C-1242.60916124 1252.76006554 -1242.61599862 1248.45620634 -1242.63427734 1244.15209961 C-1243.05017902 1145.14850657 -1230.82826688 1046.14921218 -1155.2980957 788.26074219 C-1154.81453613 787.04966797 -1154.33097656 785.83859375 -1153.83276367 784.59082031 C-1150.42261316 776.10405168 -1146.90373421 767.66622318 -1143.2980957 759.26074219 C-1143.0121051 758.59401489 -1142.7261145 757.9272876 -1142.43145752 757.24035645 C-1124.05975358 714.50745904 -1103.58421868 672.53685754 -1080.2980957 632.26074219 C-1079.4313623 630.75785645 -1079.4313623 630.75785645 -1078.54711914 629.22460938 C-1058.35767222 594.25970704 -1036.86379836 560.06028949 -1013.2980957 527.26074219 C-1012.77650879 526.53193848 -1012.25492188 525.80313477 -1011.7175293 525.05224609 C-996.0577959 503.17751193 -979.77703545 481.80750664 -962.72192383 461.00048828 C-961.44583266 459.44125892 -960.17622189 457.87673119 -958.9074707 456.31152344 C-953.34246138 449.45535188 -947.61088602 442.7516129 -941.84643555 436.06347656 C-940.3196888 434.28588306 -938.80167862 432.50122204 -937.28637695 430.71386719 C-930.94868037 423.24917002 -924.43574637 415.98541098 -917.75512695 408.82666016 C-915.40116383 406.29678089 -913.068445 403.74757576 -910.7355957 401.19824219 C-909.87417969 400.25988525 -909.01276367 399.32152832 -908.12524414 398.35473633 C-906.44513161 396.52122794 -904.77886303 394.67867467 -903.12329102 392.82275391 C-894.28650068 382.99018994 -884.89246428 373.7025827 -875.53613281 364.3684082 C-873.08886093 361.92686476 -870.64615266 359.48081228 -868.20472431 357.03342724 C-865.83855078 354.66274201 -863.46854324 352.29590496 -861.09887695 349.92871094 C-860.23410233 349.06191208 -859.3693277 348.19511322 -858.47834778 347.30204773 C-854.12762848 342.96795602 -849.72025532 338.768485 -845.05220032 334.7767334 C-842.0017229 332.14034733 -839.10028124 329.34475594 -836.1730957 326.57324219 C-830.64907509 321.377643 -825.0100374 316.35744352 -819.22412109 311.45605469 C-815.79714486 308.55251553 -812.43050722 305.59991231 -809.1105957 302.57324219 C-804.92925137 298.78006826 -800.60771593 295.19855982 -796.2199707 291.64746094 C-793.02397975 289.03683196 -789.87757638 286.37331451 -786.7355957 283.69824219 C-777.69335689 276.01927444 -768.36291858 268.73546315 -758.94506836 261.52539062 C-757.37517975 260.31993213 -755.81109021 259.10693255 -754.24731445 257.89355469 C-744.72315041 250.51141991 -735.02485738 243.37297222 -725.2980957 236.26074219 C-724.15002441 235.41842041 -724.15002441 235.41842041 -722.97875977 234.55908203 C-712.62714269 226.9704235 -702.11113719 219.69496242 -691.38842773 212.64111328 C-689.45438008 211.36394609 -687.52859462 210.07561771 -685.60668945 208.78027344 C-658.51635617 190.52923935 -630.60925293 173.50987299 -601.99926758 157.75537109 C-599.64680568 156.45369252 -597.3054573 155.13551278 -594.9699707 153.80371094 C-514.89772571 108.29210958 -427.50369485 72.93774651 -315.2980957 41.26074219 C-314.43259094 41.02760315 -313.56708618 40.79446411 -312.675354 40.55426025 C-243.62050023 21.99841611 -172.74184536 10.28676679 -101.5480957 4.01074219 C-100.24927963 3.89490784 -100.24927963 3.89490784 -98.92422485 3.7767334 C-92.38673685 3.20217778 -85.84481085 2.71706431 -79.2980957 2.26074219 C-77.47648422 2.12943909 -77.47648422 2.12943909 -75.61807251 1.9954834 C-50.41184759 0.22567349 -25.26206502 -0.05344718 0 0 Z " fill="#8164B3" transform="translate(1492.298095703125,249.7392578125)"/>
<path d="M0 0 C0.99 0.86625 1.98 1.7325 3 2.625 C5.61986085 4.87437547 8.28936077 7.00535433 11.0625 9.0625 C14.48493837 11.60431095 17.82942314 14.14648083 21 17 C21 17.66 21 18.32 21 19 C21.99 19.33 22.98 19.66 24 20 C25.54117068 21.71714229 27.01229851 23.49795173 28.4375 25.3125 C30.63311512 28.09509852 32.74775555 30.75379217 35.28515625 33.23046875 C37 35 37 35 37 37 C37.66 37 38.32 37 39 37 C40.68762851 38.6454378 42.3540349 40.31288577 44 42 C44.99 42.495 44.99 42.495 46 43 C46 43.66 46 44.32 46 45 C46.99 45.33 47.98 45.66 49 46 C50.578125 47.85546875 50.578125 47.85546875 52.25 50.1875 C54.59820564 53.33179242 56.90137057 55.94947507 59.9375 58.4375 C61.4534375 59.7059375 61.4534375 59.7059375 63 61 C63 61.66 63 62.32 63 63 C63.57878906 63.27328125 64.15757812 63.5465625 64.75390625 63.828125 C71.71439316 67.45968339 77.46644649 72.54994756 81.36328125 79.39453125 C83.11702751 82.1862944 85.03818899 84.30413992 87.375 86.625 C88.12523437 87.38039063 88.87546875 88.13578125 89.6484375 88.9140625 C91.90680495 91.07861383 91.90680495 91.07861383 94.6015625 92.3984375 C97 94 97 94 98.375 96.7890625 C100.51259563 101.01286926 103.40198335 103.38031341 107 106.375 C107.66410889 106.94226807 108.32821777 107.50953613 109.01245117 108.09399414 C113.77527917 112.1157978 118.6827136 115.74327289 123.92578125 119.12109375 C126 121 126 121 126.9375 123.90234375 C128.3272284 127.95401515 130.36667206 129.46667098 133.6875 132.125 C134.22552246 132.56239502 134.76354492 132.99979004 135.31787109 133.45043945 C138.12633317 135.69171889 140.89859407 137.61181339 144.125 139.1875 C147.18518765 141.11674873 147.48519287 141.49142525 148.4375 144.75 C148.623125 145.8225 148.80875 146.895 149 148 C145.55220914 146.49993609 143.17639467 144.49590738 140.4375 141.9375 C137.0043344 138.78418487 133.52382205 135.77534573 129.875 132.875 C123.54737697 127.75904947 117.69538834 122.16557804 111.7890625 116.57421875 C108.83398828 113.77732191 105.84584389 111.02472442 102.8125 108.3125 C101.20730324 106.87615035 99.60328752 105.43848048 98 104 C97.16025635 103.24710693 96.3205127 102.49421387 95.45532227 101.71850586 C85.33914015 92.5136607 75.69004211 82.84344296 66.03222656 73.16259766 C63.59856297 70.72319743 61.16037891 68.28837231 58.72087288 65.85481644 C56.35574028 63.4941942 53.99445425 61.12973962 51.6328125 58.765625 C50.7691507 57.90398743 49.90548889 57.04234985 49.01565552 56.15460205 C44.69054544 51.8128334 40.50093114 47.41357602 36.51722717 42.75534058 C33.8802917 39.70456485 31.08441705 36.80261148 28.3125 33.875 C23.12342368 28.35791457 18.10458957 22.72953565 13.21508789 16.94580078 C9.43960208 12.48240594 5.53733893 8.16410056 1.546875 3.890625 C0 2 0 2 0 0 Z " fill="#D3F2F7" transform="translate(548,2310)"/>
<path d="M0 0 C0.99 0.495 0.99 0.495 2 1 C1.57589844 1.4125 1.15179687 1.825 0.71484375 2.25 C-2.42315007 5.33971699 -5.44929817 8.46528072 -8.3125 11.8125 C-13.62388051 17.95750526 -19.33233768 23.73671369 -25.51098633 29.00978088 C-30.752262 33.58647862 -35.63843411 38.50592716 -40.546875 43.43334961 C-41.58230953 44.4690668 -42.61796547 45.50456268 -43.65382385 46.53985596 C-46.44269389 49.3284411 -49.22848723 52.1200811 -52.01370621 54.91231227 C-54.93335731 57.83824846 -57.8558731 60.76132056 -60.77807617 63.68470764 C-66.3011706 69.21090026 -71.82171269 74.73963522 -77.34132481 80.26930577 C-83.62960731 86.56879653 -89.92075662 92.86542101 -96.21213913 99.16181552 C-109.14460111 112.10470764 -122.07348854 125.05116503 -135 138 C-135.66 137.67 -136.32 137.34 -137 137 C-136.45472656 136.40574219 -135.90945313 135.81148437 -135.34765625 135.19921875 C-131.26296448 130.70954899 -127.29468174 126.17583275 -123.5 121.4375 C-119.93933311 117.03319079 -116.14771941 113.04264982 -112.09765625 109.08984375 C-110.24359625 107.242689 -108.51577378 105.36001831 -106.8125 103.375 C-95.35753021 90.06732228 -82.86057341 77.70195658 -70.43896484 65.30859375 C-68.07645357 62.95059186 -65.71732488 60.58931697 -63.36004066 58.22609711 C-61.0679898 55.92953761 -58.77210505 53.63681854 -56.4765625 51.34375 C-55.64307281 50.50823608 -54.80958313 49.67272217 -53.95083618 48.81188965 C-49.68030014 44.55828451 -45.34556436 40.44704962 -40.76550293 36.52738953 C-37.71226901 33.8859453 -34.80611285 31.08773221 -31.875 28.3125 C-26.35856267 23.12403325 -20.72700061 18.11108462 -14.95019531 13.21508789 C-9.87254729 8.91136463 -4.91726341 4.48671961 0 0 Z " fill="#ECBCB6" transform="translate(688,548)"/>
<path d="M0 0 C0.99 0.86625 1.98 1.7325 3 2.625 C5.61986085 4.87437547 8.28936077 7.00535433 11.0625 9.0625 C14.48493837 11.60431095 17.82942314 14.14648083 21 17 C21 17.66 21 18.32 21 19 C21.99 19.33 22.98 19.66 24 20 C25.54117068 21.71714229 27.01229851 23.49795173 28.4375 25.3125 C30.63311512 28.09509852 32.74775555 30.75379217 35.28515625 33.23046875 C37 35 37 35 37 37 C37.66 37 38.32 37 39 37 C40.68762851 38.6454378 42.3540349 40.31288577 44 42 C44.99 42.495 44.99 42.495 46 43 C46 43.66 46 44.32 46 45 C46.99 45.33 47.98 45.66 49 46 C50.578125 47.85546875 50.578125 47.85546875 52.25 50.1875 C54.59820564 53.33179242 56.90137057 55.94947507 59.9375 58.4375 C61.4534375 59.7059375 61.4534375 59.7059375 63 61 C63 61.66 63 62.32 63 63 C63.57878906 63.27328125 64.15757812 63.5465625 64.75390625 63.828125 C71.71439316 67.45968339 77.46644649 72.54994756 81.36328125 79.39453125 C83.11702751 82.1862944 85.03818899 84.30413992 87.375 86.625 C88.12523437 87.38039063 88.87546875 88.13578125 89.6484375 88.9140625 C91.94806201 91.08403652 91.94806201 91.08403652 94.73828125 92.63671875 C97 94 97 94 97.8125 96.1875 C97.874375 96.785625 97.93625 97.38375 98 98 C91.02330932 94.29363308 85.51250932 88.56114911 80 83 C78.9484185 81.94741508 77.89630878 80.89535767 76.84375 79.84375 C74.61458333 77.61458333 72.38541667 75.38541667 70.15625 73.15625 C69.62016113 72.6202417 69.08407227 72.0842334 68.53173828 71.53198242 C67.1533893 70.15341375 65.77586184 68.7740238 64.3984375 67.39453125 C62.79425389 65.79296032 61.18482833 64.19662341 59.5703125 62.60546875 C55.73623038 58.81425976 51.94987545 55.03117768 48.4375 50.9375 C42.85316499 44.46176879 37.37964442 38.61029171 29.9609375 34.28515625 C23.27616944 29.90410308 18.3853246 23.12228075 13.453125 16.95703125 C10.27110062 13.12137447 6.89499303 9.48744004 3.45385742 5.88378906 C0 2.21170868 0 2.21170868 0 0 Z " fill="#AFD1F0" transform="translate(548,2310)"/>
<path d="M0 0 C0 0.99 0 1.98 0 3 C-1.81341754 4.67274771 -3.62136018 6.17577648 -5.5625 7.6875 C-11.00744452 12.09362133 -15.83629433 16.83438824 -20.5625 22 C-25.74145863 27.6478599 -31.03109844 32.89540024 -36.74609375 38.00390625 C-43.09384223 43.7578787 -49.03751001 49.95874211 -55.06225586 56.04638672 C-59.18552403 60.20342237 -63.33790128 64.33103227 -67.4921875 68.45703125 C-69.07738211 70.0348401 -70.66208966 71.61313633 -72.24658203 73.19165039 C-73.32771017 74.26775379 -74.40973467 75.34295744 -75.49267578 76.41723633 C-81.02780186 81.90942181 -86.4710556 87.41331853 -91.53759766 93.34838867 C-93.6061471 95.68457181 -95.88845014 97.71520547 -98.25 99.75 C-101.23129864 102.32391622 -103.75140762 104.75852267 -106 108 C-106.66 107.67 -107.32 107.34 -108 107 C-102.98616471 101.10026148 -97.71999389 95.44538697 -92.41552734 89.80834961 C-89.19636645 86.38039557 -86.03040256 82.91511605 -82.90795898 79.39868164 C-78.03098684 73.97518219 -72.93974911 68.79520699 -67.77734375 63.64453125 C-66.82273605 62.68924706 -65.86827658 61.73381473 -64.91395569 60.77824402 C-62.93147597 58.79430493 -60.94723775 56.81214713 -58.96166992 54.83129883 C-56.43812087 52.3134617 -53.91911142 49.79113805 -51.40140438 47.26746082 C-49.43763554 45.30005174 -47.47145835 43.33506329 -45.50457954 41.37076378 C-44.12971621 39.99687543 -42.75683692 38.62100253 -41.38401794 37.24507141 C-36.96551782 32.84293271 -32.49752425 28.56788324 -27.75424194 24.51612854 C-24.63705475 21.82205519 -21.67708359 18.95883047 -18.6875 16.125 C-12.67035895 10.45851173 -6.50184543 5.10955836 0 0 Z " fill="#EAD0D5" transform="translate(675,560)"/>
<path d="M0 0 C0 3 0 3 -1.50390625 4.76171875 C-2.18324219 5.39722656 -2.86257813 6.03273438 -3.5625 6.6875 C-6.20416576 9.17468238 -8.64501868 11.72781586 -10.99414062 14.48754883 C-15.5993766 19.77061724 -20.5602233 24.68547216 -25.52734375 29.625 C-26.52647028 30.62225677 -27.5253728 31.61973802 -28.52406311 32.61743164 C-31.1274695 35.21705679 -33.7338667 37.81366231 -36.34094238 40.40960693 C-39.01104274 43.06939763 -41.67824277 45.7320934 -44.34570312 48.39453125 C-49.56100038 53.59916888 -54.77946716 58.8006134 -60 64 C-60.66 63.67 -61.32 63.34 -62 63 C-56.52520997 56.87105307 -51.13045966 50.92107348 -44.8203125 45.6328125 C-42.90356022 43.91349393 -41.28405251 42.09271344 -39.625 40.125 C-36.28126645 36.17053886 -32.5563355 32.83107642 -28.625 29.46875 C-26.51944424 27.48852494 -24.68420165 25.52898816 -22.80859375 23.34375 C-18.47544137 18.31170207 -13.77909154 13.66996363 -9.0625 9 C-8.18787109 8.12988281 -7.31324219 7.25976562 -6.41210938 6.36328125 C-4.27702551 4.23986451 -2.13962795 2.11883622 0 0 Z " fill="#EDB7C6" transform="translate(613,622)"/>
<path d="M0 0 C7.6982798 6.3879343 14.6747961 13.33464295 21.16015625 20.94921875 C24.02818223 24.14606299 27.1543203 27.07377458 30.27734375 30.01953125 C32 32 32 32 32 35 C24.05291865 31.47381158 18.74474415 23.57155519 13.453125 16.95703125 C10.27110062 13.12137447 6.89499303 9.48744004 3.45385742 5.88378906 C0 2.21170868 0 2.21170868 0 0 Z " fill="#B7C7F1" transform="translate(548,2310)"/>
<path d="M0 0 C3.66930697 1.27370255 6.02183069 2.65130292 8.7421875 5.4140625 C9.41636719 6.09339844 10.09054687 6.77273437 10.78515625 7.47265625 C11.47480469 8.18292969 12.16445313 8.89320313 12.875 9.625 C13.55691406 10.31207031 14.23882813 10.99914063 14.94140625 11.70703125 C18.92067336 15.74693481 22.72983868 19.89610165 26.41870117 24.20263672 C28.82150303 26.93375101 31.39688462 29.46037524 34 32 C33.505 32.99 33.505 32.99 33 34 C32.51120361 33.50072998 32.02240723 33.00145996 31.51879883 32.48706055 C29.28869716 30.21523524 27.05071241 27.95133382 24.8125 25.6875 C24.04357422 24.90181641 23.27464844 24.11613281 22.48242188 23.30664062 C21.73154297 22.54931641 20.98066406 21.79199219 20.20703125 21.01171875 C19.5210083 20.31522217 18.83498535 19.61872559 18.12817383 18.90112305 C15.89278345 16.90422218 13.58551796 15.50241006 11 14 C9.12109375 12.09765625 9.12109375 12.09765625 7.4375 10.0625 C5.53600442 7.79980329 3.68312335 5.69124839 1.5625 3.625 C0 2 0 2 0 0 Z " fill="#C4DAF4" transform="translate(579,2345)"/>
<path d="M0 0 C2.89544737 1.30688843 4.92343117 2.68967692 7.12890625 4.96875 C7.68900391 5.53980469 8.24910156 6.11085938 8.82617188 6.69921875 C9.39916016 7.29347656 9.97214844 7.88773438 10.5625 8.5 C11.70730947 9.67934563 12.85436457 10.85651652 14.00390625 12.03125 C14.75909546 12.81338867 14.75909546 12.81338867 15.52954102 13.61132812 C17.15641908 15.2256108 17.15641908 15.2256108 20 17 C20 17.66 20 18.32 20 19 C20.58136719 19.24492187 21.16273438 19.48984375 21.76171875 19.7421875 C24.37606286 21.21133027 25.86564612 22.84904454 27.8125 25.125 C28.5034375 25.92550781 29.194375 26.72601562 29.90625 27.55078125 C30.5971875 28.35902344 31.288125 29.16726562 32 30 C33.26970578 31.43849603 34.54046132 32.87606649 35.8125 34.3125 C38.00249776 36.79380388 40.03956304 39.33309927 42 42 C38.7760483 40.58460657 36.64333208 38.88585072 34.1875 36.375 C33.56230469 35.74335938 32.93710937 35.11171875 32.29296875 34.4609375 C30.46563997 32.49974989 28.72396899 30.50968422 26.984375 28.47265625 C21.9750348 22.71550318 16.49025589 17.41992865 11.0625 12.0625 C8.96721097 9.99372962 6.87522387 7.92170002 4.78515625 5.84765625 C3.86613525 4.94023682 2.94711426 4.03281738 2.00024414 3.09790039 C0 1 0 1 0 0 Z " fill="#CDEBF5" transform="translate(613,2379)"/>
<path d="M0 0 C3.80126138 1.62392789 6.71457657 4.14115183 9.8125 6.8125 C13.17334544 9.688312 16.51483666 12.4293283 20.25 14.8125 C23 17 23 17 23.4375 19.8125 C23.293125 20.534375 23.14875 21.25625 23 22 C19.125 20.25 19.125 20.25 18 18 C17.278125 17.608125 16.55625 17.21625 15.8125 16.8125 C12.17401692 14.46769979 9.48375047 11.54211837 7 8 C7 7.34 7 6.68 7 6 C6.401875 5.7525 5.80375 5.505 5.1875 5.25 C2.71352479 3.83629988 1.56629745 2.34944617 0 0 Z " fill="#B5E8F1" transform="translate(651,2414)"/>
<path d="M0 0 C0 0.99 0 1.98 0 3 C-1.81336614 4.6727003 -3.62113391 6.17615514 -5.5625 7.6875 C-11.96842151 12.85736453 -17.52940264 18.60684408 -23.06079102 24.69213867 C-23.66205811 25.35189697 -24.2633252 26.01165527 -24.8828125 26.69140625 C-25.41277832 27.28123291 -25.94274414 27.87105957 -26.48876953 28.47875977 C-28 30 -28 30 -31 32 C-29.58261511 28.74792908 -27.87473588 26.68638933 -25.3125 24.25 C-22.64318634 21.65708888 -20.13585726 19.04232183 -17.75 16.1875 C-14.62491983 12.54761544 -11.2184528 9.30025574 -7.6875 6.0625 C-7.15930664 5.57740967 -6.63111328 5.09231934 -6.08691406 4.5925293 C-2.26755403 1.13377702 -2.26755403 1.13377702 0 0 Z " fill="#EACABE" transform="translate(675,560)"/>
<path d="M0 0 C4.25310932 0.49685857 6.32031258 2.91961357 9.25 5.875 C10.58804688 7.20144531 10.58804688 7.20144531 11.953125 8.5546875 C14 11 14 11 14 14 C10.65876526 12.5466378 8.43458035 10.70404484 5.875 8.125 C5.19179688 7.44695313 4.50859375 6.76890625 3.8046875 6.0703125 C2.09819096 4.11264331 1.03057459 2.3692591 0 0 Z " fill="#C0D0F3" transform="translate(566,2331)"/>
<path d="M0 0 C6.80280919 3.21201681 12.72140177 7.78913161 17 14 C16.67 14.99 16.34 15.98 16 17 C13.32932797 14.3581833 10.66414667 11.7108958 8 9.0625 C7.236875 8.30775391 6.47375 7.55300781 5.6875 6.77539062 C4.965625 6.05673828 4.24375 5.33808594 3.5 4.59765625 C2.8296875 3.93258057 2.159375 3.26750488 1.46875 2.58227539 C0 1 0 1 0 0 Z " fill="#A9D3EF" transform="translate(611,2373)"/>
<path d="M0 0 C1.34391123 0.64507739 2.67353844 1.3197633 4 2 C5.19625 2.556875 6.3925 3.11375 7.625 3.6875 C10.52160825 5.31878045 11.53726708 6.54413456 12.4375 9.75 C12.623125 10.8225 12.80875 11.895 13 13 C9.14073288 11.45098223 6.97240841 9.02912393 4.25 5.9375 C3.45078125 5.03902344 2.6515625 4.14054687 1.828125 3.21484375 C0 1 0 1 0 0 Z " fill="#B2F0F1" transform="translate(684,2445)"/>
<path d="M0 0 C6.84445 2.94191272 11.15852456 9.8536393 15 16 C11.66564695 14.58143752 9.80434174 12.90068437 7.5 10.125 C5.57818838 7.84362363 3.70235618 5.70998808 1.5625 3.625 C0 2 0 2 0 0 Z " fill="#D5DFF7" transform="translate(579,2345)"/>
</svg>
